<svg width="90" height="27" viewBox="0 0 90 27" fill="none" xmlns="http://www.w3.org/2000/svg">
<g clip-path="url(#clip0)">
<path d="M26.9947 6.65895C26.9632 6.36854 26.7827 6.11151 26.513 5.98563L13.8567 0.0793852C13.6306 -0.0261362 13.3693 -0.0261362 13.1431 0.0793852L0.486896 5.98563C0.217213 6.11151 0.0367559 6.36849 0.00516797 6.65895C0.00448242 6.66501 0 6.7458 0 6.75023V21.094C0 21.439 0.210041 21.7493 0.530402 21.8773L13.1867 26.9398C13.2872 26.9801 13.3936 27.0002 13.5 27.0002C13.6064 27.0002 13.7128 26.9801 13.8133 26.9398L26.4696 21.8773C26.79 21.7493 27 21.439 27 21.094V6.75023C27 6.7458 26.9954 6.66496 26.9947 6.65895ZM13.5 1.77506L24.0334 6.69064L19.9774 8.31307L9.24576 3.7604L13.5 1.77506ZM7.18822 4.72059L17.7533 9.20264L13.5 10.904L2.96662 6.69064L7.18822 4.72059ZM1.6875 7.99645L12.6562 12.3839V24.9102L1.6875 20.5227V7.99645ZM14.3438 24.9103V12.3839L25.3125 7.99645V20.5227L14.3438 24.9103Z" fill="#0A143A"/>
</g>
<path d="M44.1562 15.4844H37.9922L36.8203 19H33.082L39.4336 1.9375H42.6914L49.0781 19H45.3398L44.1562 15.4844ZM38.9414 12.6367H43.207L41.0625 6.25L38.9414 12.6367Z" fill="#0A143A"/>
<path d="M61.875 12.7773C61.875 14.8086 61.4414 16.3945 60.5742 17.5352C59.707 18.668 58.4961 19.2344 56.9414 19.2344C55.5664 19.2344 54.4688 18.707 53.6484 17.6523L53.4961 19H50.4492V1H53.8359V7.45703C54.6172 6.54297 55.6445 6.08594 56.918 6.08594C58.4648 6.08594 59.6758 6.65625 60.5508 7.79688C61.4336 8.92969 61.875 10.5273 61.875 12.5898V12.7773ZM58.4883 12.5312C58.4883 11.25 58.2852 10.3164 57.8789 9.73047C57.4727 9.13672 56.8672 8.83984 56.0625 8.83984C54.9844 8.83984 54.2422 9.28125 53.8359 10.1641V15.168C54.25 16.0586 55 16.5039 56.0859 16.5039C57.1797 16.5039 57.8984 15.9648 58.2422 14.8867C58.4062 14.3711 58.4883 13.5859 58.4883 12.5312Z" fill="#0A143A"/>
<path d="M67.5469 19H64.1484V6.32031H67.5469V19ZM63.9492 3.03906C63.9492 2.53125 64.1172 2.11328 64.4531 1.78516C64.7969 1.45703 65.2617 1.29297 65.8477 1.29297C66.4258 1.29297 66.8867 1.45703 67.2305 1.78516C67.5742 2.11328 67.7461 2.53125 67.7461 3.03906C67.7461 3.55469 67.5703 3.97656 67.2188 4.30469C66.875 4.63281 66.418 4.79688 65.8477 4.79688C65.2773 4.79688 64.8164 4.63281 64.4648 4.30469C64.1211 3.97656 63.9492 3.55469 63.9492 3.03906Z" fill="#0A143A"/>
<path d="M74.4023 3.20312V6.32031H76.5703V8.80469H74.4023V15.1328C74.4023 15.6016 74.4922 15.9375 74.6719 16.1406C74.8516 16.3438 75.1953 16.4453 75.7031 16.4453C76.0781 16.4453 76.4102 16.418 76.6992 16.3633V18.9297C76.0352 19.1328 75.3516 19.2344 74.6484 19.2344C72.2734 19.2344 71.0625 18.0352 71.0156 15.6367V8.80469H69.1641V6.32031H71.0156V3.20312H74.4023Z" fill="#0A143A"/>
<path d="M77.5781 12.543C77.5781 11.2852 77.8203 10.1641 78.3047 9.17969C78.7891 8.19531 79.4844 7.43359 80.3906 6.89453C81.3047 6.35547 82.3633 6.08594 83.5664 6.08594C85.2773 6.08594 86.6719 6.60938 87.75 7.65625C88.8359 8.70312 89.4414 10.125 89.5664 11.9219L89.5898 12.7891C89.5898 14.7344 89.0469 16.2969 87.9609 17.4766C86.875 18.6484 85.418 19.2344 83.5898 19.2344C81.7617 19.2344 80.3008 18.6484 79.207 17.4766C78.1211 16.3047 77.5781 14.7109 77.5781 12.6953V12.543ZM80.9648 12.7891C80.9648 13.9922 81.1914 14.9141 81.6445 15.5547C82.0977 16.1875 82.7461 16.5039 83.5898 16.5039C84.4102 16.5039 85.0508 16.1914 85.5117 15.5664C85.9727 14.9336 86.2031 13.9258 86.2031 12.543C86.2031 11.3633 85.9727 10.4492 85.5117 9.80078C85.0508 9.15234 84.4023 8.82812 83.5664 8.82812C82.7383 8.82812 82.0977 9.15234 81.6445 9.80078C81.1914 10.4414 80.9648 11.4375 80.9648 12.7891Z" fill="#0A143A"/>
<defs>
<clipPath id="clip0">
<rect width="27" height="27" fill="white"/>
</clipPath>
</defs>
</svg>
